<svg width="142" height="28" viewBox="0 0 142 28" fill="none" xmlns="http://www.w3.org/2000/svg">
<path d="M141.123 17.5175C140.914 16.4619 139.965 15.7009 138.951 15.777C137.818 15.8628 136.965 16.7031 136.91 17.8074C136.866 18.3498 137.03 18.8885 137.369 19.3146C137.707 19.7407 138.195 20.0226 138.733 20.1033C139.745 20.2733 140.752 19.6176 141.074 18.5927C141.11 18.4793 141.074 18.3417 141.184 18.251V17.6859C141.123 17.6455 141.134 17.5775 141.123 17.5175ZM139.034 19.7844C138.549 19.7844 138.083 19.5916 137.74 19.2485C137.397 18.9053 137.204 18.44 137.204 17.9547C137.204 17.4695 137.397 17.0041 137.74 16.661C138.083 16.3178 138.549 16.1251 139.034 16.1251C139.519 16.1251 139.985 16.3178 140.328 16.661C140.671 17.0041 140.864 17.4695 140.864 17.9547C140.864 18.44 140.671 18.9053 140.328 19.2485C139.985 19.5916 139.519 19.7844 139.034 19.7844Z" fill="#8F90A6"/>
<path d="M46.4605 13.0329C44.8413 11.9092 43.0166 11.451 41.0768 11.425C38.7032 11.3943 36.3263 11.425 33.9526 11.425C33.394 11.425 33.292 11.5254 33.292 12.0727V19.8446C33.292 22.4449 33.292 25.0453 33.292 27.6456C33.292 28.1492 33.4199 28.2739 33.9202 28.2739C36.2226 28.2739 38.5245 28.2739 40.8259 28.2739C41.7154 28.2773 42.602 28.1734 43.4667 27.9646C46.1237 27.3056 48.1088 25.8273 49.1531 23.2399C49.7733 21.705 49.8882 20.0972 49.6745 18.4716C49.3766 16.208 48.3581 14.3541 46.4605 13.0329ZM43.4716 22.7477C42.7251 23.4877 41.7957 23.7856 40.7708 23.8164C40.0293 23.839 39.2861 23.8164 38.5429 23.8164C38.3664 23.8164 38.3113 23.7678 38.3113 23.5881C38.3178 21.0816 38.3178 18.5752 38.3113 16.0688C38.3113 15.9068 38.3583 15.855 38.5234 15.8583C38.9525 15.8696 39.3816 15.8583 39.8107 15.8583C40.5425 15.8583 41.276 15.8243 41.9933 16.0202C43.5493 16.4266 44.5143 17.6199 44.6487 19.3119C44.7539 20.6266 44.4301 21.7957 43.4716 22.7461V22.7477Z" fill="#8F90A6"/>
<path d="M83.0199 15.9142C81.1692 15.4706 79.5241 15.9142 78.1236 17.2096C77.9147 17.4039 77.735 17.6273 77.5326 17.8475C77.1068 16.7611 76.3409 16.0907 75.2172 15.8738C73.3018 15.5062 71.6243 16.0033 70.1768 17.331C70.1639 17.3116 70.1542 17.3051 70.1542 17.297C70.1542 17.0671 70.1542 16.8371 70.1542 16.6072C70.1542 16.2024 70.0084 16.0551 69.6101 16.0535C68.481 16.0535 67.3514 16.0535 66.2213 16.0535C65.8197 16.0535 65.6724 16.1944 65.6724 16.6024C65.6724 20.3102 65.6724 24.0175 65.6724 27.7243C65.6724 28.1274 65.8213 28.2651 66.2294 28.2651H69.5243C70.0311 28.2651 70.1542 28.1436 70.1542 27.6417C70.1542 25.4289 70.1542 23.216 70.1542 21.0032C70.1542 20.8818 70.1266 20.7587 70.2254 20.6486C70.5719 20.2568 70.9686 19.9297 71.4948 19.839C72.5424 19.648 73.3261 20.0301 73.3099 21.2963C73.284 23.4271 73.3099 25.5579 73.3099 27.6887C73.3099 28.1533 73.4378 28.278 73.9073 28.278H77.1715C77.6654 28.278 77.7787 28.1647 77.7787 27.6725V21.034C77.7682 20.9623 77.7725 20.8892 77.7915 20.8193C77.8104 20.7494 77.8436 20.6841 77.8888 20.6276C78.1573 20.319 78.4952 20.0787 78.8749 19.9265C80.1022 19.4715 80.9684 20.0625 80.9798 21.3594V27.7502C80.9798 28.1291 81.1141 28.2796 81.4655 28.2813C82.627 28.2813 83.7884 28.2813 84.9499 28.2813C85.2737 28.2813 85.4356 28.1194 85.4356 27.7955C85.4356 24.8924 85.4518 21.9893 85.4356 19.0862C85.3984 17.4541 84.5062 16.2721 83.0199 15.9142Z" fill="#8F90A6"/>
<path d="M26.3627 5.32882L20.8301 -0.307421C20.7356 -0.410499 20.6196 -0.491609 20.4904 -0.54504C20.3611 -0.598471 20.2217 -0.622924 20.082 -0.616678C19.6594 -0.647442 19.4004 -0.352756 19.1284 -0.0742636L14.9186 4.22295C13.5293 5.64132 12.1385 7.05861 10.746 8.47482C10.6181 8.60273 10.5841 8.67397 10.7347 8.8197C13.8122 11.95 16.8853 15.0804 19.9541 18.2107C20.1678 18.4293 20.2488 18.3046 20.3848 18.1654C23.2075 15.2833 26.0302 12.4034 28.8529 9.52564C29.3808 8.98646 29.3775 8.39224 28.8416 7.85468C28.0126 7.01758 27.1901 6.16916 26.3627 5.32882ZM20.0998 11.0671C19.4647 11.0615 18.8578 10.8038 18.4127 10.3508C17.9675 9.89774 17.7206 9.28643 17.7262 8.65131C17.7318 8.01619 17.9894 7.4093 18.4425 6.96415C18.8955 6.519 19.5068 6.27205 20.1419 6.27764C20.4564 6.2804 20.7673 6.34508 21.0568 6.46798C21.3462 6.59088 21.6087 6.76959 21.8291 6.99392C22.0495 7.21824 22.2236 7.48379 22.3414 7.77538C22.4592 8.06698 22.5184 8.37893 22.5156 8.69341C22.5128 9.00789 22.4482 9.31874 22.3253 9.60822C22.2024 9.8977 22.0236 10.1601 21.7993 10.3806C21.575 10.601 21.3095 10.775 21.0179 10.8928C20.7263 11.0106 20.4143 11.0698 20.0998 11.0671V11.0671Z" fill="#8F90A6"/>
<path d="M19.4001 18.7982C19.188 18.5991 18.9921 18.3789 18.7881 18.17C15.9384 15.2706 13.0898 12.3691 10.2422 9.46548C10.0593 9.27765 9.96535 9.25013 9.75648 9.45576C7.94304 11.321 6.11503 13.1798 4.29187 15.0321C3.27505 16.0683 2.25337 17.1014 1.24302 18.1457C0.75728 18.6428 0.773471 19.2257 1.25112 19.726C1.46808 19.9527 1.69476 20.168 1.91497 20.3931C4.37715 22.9092 6.84095 25.4259 9.30636 27.9431C9.40533 28.0452 9.52427 28.1258 9.65576 28.1798C9.78725 28.2339 9.92847 28.2602 10.0706 28.2573C10.216 28.2496 10.3584 28.2132 10.4896 28.1501C10.6208 28.0871 10.7381 27.9985 10.8348 27.8897C12.1679 26.5307 13.5016 25.1733 14.8357 23.8176C16.3599 22.2664 17.8851 20.7169 19.4114 19.169C19.5669 19.0119 19.541 18.9326 19.4001 18.7982ZM6.57649 21.2755C6.10436 21.2825 5.64078 21.1493 5.24447 20.8926C4.84815 20.6359 4.53695 20.2674 4.35028 19.8337C4.16361 19.4 4.10988 18.9206 4.1959 18.4563C4.28191 17.992 4.5038 17.5638 4.83344 17.2257C5.16309 16.8876 5.58567 16.655 6.04763 16.5574C6.50959 16.4597 6.99015 16.5013 7.42842 16.677C7.86669 16.8527 8.24295 17.1546 8.50953 17.5443C8.7761 17.934 8.921 18.3941 8.92586 18.8662C8.93565 19.1804 8.88205 19.4933 8.76825 19.7862C8.65445 20.0792 8.48279 20.3463 8.26352 20.5714C8.04424 20.7966 7.78185 20.9753 7.492 21.0968C7.20214 21.2183 6.89078 21.2802 6.57649 21.2788V21.2755ZM13.4821 21.3889C12.8605 21.3753 12.2691 21.118 11.8354 20.6725C11.4017 20.227 11.1604 19.6289 11.1635 19.0071C11.1728 18.5467 11.318 18.0994 11.5808 17.7213C11.8436 17.3433 12.2124 17.0514 12.6407 16.8823C13.069 16.7133 13.5377 16.6747 13.9879 16.7713C14.4381 16.8679 14.8497 17.0955 15.1708 17.4255C15.492 17.7554 15.7085 18.1729 15.793 18.6256C15.8775 19.0782 15.8263 19.5457 15.6458 19.9693C15.4653 20.3929 15.1636 20.7537 14.7786 21.0063C14.3936 21.2588 13.9426 21.392 13.4821 21.3889V21.3889Z" fill="#8F90A6"/>
<path d="M107.2 19.1544C107.14 17.4866 106.092 16.2172 104.467 15.8934C102.477 15.4967 100.67 15.8934 99.1235 17.4008C99.1235 17.0964 99.1235 16.8503 99.1235 16.6042C99.1235 16.1849 98.9988 16.0569 98.5875 16.0569C97.4671 16.0569 96.3472 16.0569 95.2278 16.0569C94.8036 16.0569 94.6562 16.1978 94.6562 16.6123C94.6562 20.3094 94.6562 24.0064 94.6562 27.7034C94.6562 28.1244 94.8003 28.2685 95.2181 28.2685H98.5454C99.0004 28.2685 99.1235 28.1471 99.1235 27.6986C99.1235 25.5581 99.1397 23.4176 99.1121 21.2771C99.0956 21.0766 99.1343 20.8754 99.2239 20.6953C99.3135 20.5152 99.4507 20.3631 99.6205 20.2554C99.7128 20.1869 99.8084 20.1231 99.9071 20.0643C101.364 19.2337 102.75 20.019 102.75 21.6835V27.6371C102.75 28.1633 102.862 28.2718 103.398 28.2718H106.664C107.091 28.2718 107.219 28.1438 107.219 27.7099C107.219 26.1232 107.219 24.5359 107.219 22.948C107.218 21.6818 107.247 20.4173 107.2 19.1544Z" fill="#8F90A6"/>
<path d="M57.7612 15.7023C54.2801 15.5404 51.2847 18.3027 51.1616 21.9117C51.0466 25.2747 53.4964 28.3009 57.0504 28.5778C60.5186 28.8465 63.5804 26.1248 63.7974 22.561C64.0192 18.9034 61.2893 15.8659 57.7612 15.7023ZM59.6281 22.1206C59.5617 23.3722 58.5854 24.2886 57.3775 24.2255C56.9453 24.2121 56.5267 24.0707 56.1749 23.8191C55.8232 23.5676 55.5539 23.2174 55.4014 22.8127C55.2489 22.408 55.2199 21.9672 55.3182 21.5461C55.4164 21.125 55.6375 20.7425 55.9533 20.4471C56.2692 20.1517 56.6656 19.9567 57.0923 19.8868C57.5191 19.8169 57.957 19.8753 58.3505 20.0545C58.7441 20.2338 59.0756 20.5258 59.303 20.8936C59.5305 21.2614 59.6436 21.6884 59.6281 22.1206Z" fill="#8F90A6"/>
<path d="M114.648 15.7661C111.429 16.1531 109.083 18.8781 109.083 22.2135C109.073 22.7662 109.143 23.3174 109.289 23.8505C110.098 27.0483 113.382 29.1515 116.55 28.5007C117.436 28.3243 118.275 27.9636 119.013 27.442C119.75 26.9204 120.37 26.2496 120.831 25.473C121.293 24.6965 121.586 23.8316 121.691 22.9345C121.796 22.0374 121.712 21.1281 121.443 20.2657C120.579 17.403 117.857 15.3807 114.648 15.7661ZM115.394 24.2666C114.823 24.2526 114.279 24.0162 113.88 23.6076C113.48 23.199 113.256 22.6506 113.254 22.079C113.253 21.5074 113.474 20.9578 113.872 20.5471C114.269 20.1365 114.812 19.8973 115.383 19.8803C115.954 19.8943 116.498 20.1307 116.898 20.5393C117.297 20.9479 117.522 21.4964 117.523 22.0679C117.525 22.6395 117.303 23.1891 116.905 23.5998C116.508 24.0104 115.966 24.2497 115.394 24.2666V24.2666Z" fill="#8F90A6"/>
<path d="M134.507 21.1041C133.631 20.6767 132.683 20.5196 131.731 20.3804C131.101 20.2881 130.46 20.2573 129.851 20.0468C129.69 19.9885 129.516 19.9076 129.505 19.689C129.502 19.5941 129.529 19.5008 129.581 19.4215C129.633 19.3421 129.708 19.2807 129.796 19.2453C130.048 19.1198 130.325 19.0544 130.606 19.0543C131.776 18.9961 132.93 19.3388 133.878 20.0258C134.192 20.2411 134.414 20.1877 134.602 19.8541C134.984 19.1838 135.362 18.5119 135.735 17.8383C135.915 17.5145 135.86 17.3202 135.551 17.1291C134.25 16.3178 132.761 15.858 131.229 15.7949C129.923 15.7334 128.639 15.816 127.421 16.3616C126.087 16.9624 125.253 17.9387 125.216 19.4607C125.175 21.0701 125.899 22.2132 127.364 22.8884C128.286 23.3126 129.275 23.481 130.266 23.6413C130.873 23.7401 131.49 23.8032 132.07 24.0218C132.308 24.1141 132.546 24.2404 132.528 24.548C132.51 24.8557 132.264 24.9334 132.042 25.0127C131.612 25.1504 131.159 25.2021 130.71 25.1649C129.414 25.0953 128.261 24.5934 127.159 23.9522C126.77 23.7255 126.594 23.7628 126.365 24.1481C125.944 24.8562 125.526 25.5659 125.109 26.2773C124.876 26.6756 124.913 26.8618 125.305 27.1047C126.751 27.9819 128.394 28.4829 130.083 28.5619C131.378 28.5878 132.36 28.5036 133.31 28.2186C135.198 27.6519 136.26 26.4376 136.43 24.6565C136.59 23.0341 135.917 21.7939 134.507 21.1041Z" fill="#8F90A6"/>
<path d="M91.6774 16.0569C90.5904 16.0569 89.5029 16.0569 88.4148 16.0569C87.8773 16.0569 87.751 16.1816 87.751 16.7175V27.5204C87.751 28.1681 87.8449 28.2701 88.4844 28.2701H91.6871C92.1016 28.2701 92.2538 28.1211 92.2554 27.705C92.2554 24.008 92.2554 20.3125 92.2554 16.6187C92.2506 16.2075 92.0951 16.0569 91.6774 16.0569Z" fill="#8F90A6"/>
<path d="M122.836 10.1603C122.196 10.2596 121.619 10.6062 121.232 11.1258C120.844 11.6453 120.675 12.2963 120.762 12.9387C120.914 13.9329 121.658 14.6566 122.768 14.8461C123.024 14.8898 122.993 14.9756 122.917 15.1456C122.783 15.442 122.563 15.6921 122.287 15.8645C122.249 15.8818 122.215 15.9076 122.187 15.9399C122.16 15.9721 122.141 16.0101 122.13 16.051C122.119 16.0919 122.118 16.1346 122.126 16.1761C122.135 16.2175 122.152 16.2566 122.177 16.2904C122.605 16.951 122.522 16.9834 123.197 16.6498L123.282 16.6093C124.8 15.7819 125.72 14.5611 125.807 13.0942C125.815 11.1285 124.449 9.92065 122.836 10.1603Z" fill="#8F90A6"/>
<path d="M90.1177 10.0681C89.6095 10.0584 89.11 10.2003 88.6827 10.4756C88.2554 10.7509 87.9198 11.1471 87.7185 11.6138C87.5173 12.0806 87.4595 12.5966 87.5526 13.0963C87.6457 13.596 87.8854 14.0567 88.2412 14.4196C88.5971 14.7825 89.0529 15.0313 89.5506 15.1343C90.0484 15.2372 90.5655 15.1897 91.0361 14.9977C91.5067 14.8057 91.9095 14.478 92.1932 14.0562C92.4769 13.6345 92.6286 13.1378 92.629 12.6296C92.6326 12.2964 92.5705 11.9658 92.4462 11.6566C92.3219 11.3475 92.1379 11.0659 91.9046 10.828C91.6714 10.5901 91.3935 10.4005 91.0868 10.2701C90.7802 10.1397 90.4509 10.071 90.1177 10.0681V10.0681Z" fill="#8F90A6"/>
<path d="M20.7424 25.3737C20.4996 25.4012 20.1676 25.1665 20.0235 25.5826C19.8616 26.023 19.6916 26.4569 19.5038 26.9459C19.35 26.5379 19.214 26.1801 19.0779 25.8222C18.895 25.3365 18.895 25.3527 18.3688 25.3575C18.1777 25.3575 18.1146 25.4142 18.1178 25.6069C18.1275 26.3063 18.1324 27.0058 18.1178 27.7118C18.1178 27.966 18.2376 27.9595 18.4238 27.9708C18.6489 27.9838 18.678 27.8834 18.6748 27.6956C18.6634 27.226 18.6748 26.7565 18.6748 26.2869C18.9058 26.7559 19.1127 27.2363 19.2949 27.7263C19.3338 27.8235 19.3338 27.9595 19.4973 27.966C19.6608 27.9724 19.6819 27.8251 19.724 27.7166C19.9134 27.2309 20.0964 26.7548 20.281 26.2723C20.3228 26.7515 20.3358 27.2327 20.3198 27.7134C20.3198 27.9303 20.3992 27.9757 20.5951 27.9692C20.791 27.9627 20.9092 27.9692 20.9027 27.715C20.8849 27.0463 20.9027 26.3792 20.8914 25.7105C20.8849 25.5826 20.9885 25.3462 20.7424 25.3737Z" fill="#8F90A6"/>
<path d="M17.5934 25.3559C17.0704 25.3704 16.5474 25.3672 16.026 25.3559C15.8366 25.3559 15.7734 25.4077 15.7734 25.602C15.7734 25.7963 15.8236 25.8967 16.0341 25.8708C16.1167 25.8594 16.196 25.8708 16.2851 25.8708C16.4632 25.8513 16.5247 25.9258 16.5166 26.1023C16.5037 26.3727 16.5166 26.6447 16.5166 26.9119C16.5166 27.179 16.528 27.4753 16.5166 27.7571C16.5037 28.0048 16.6785 27.9481 16.8081 27.953C16.9376 27.9578 17.0979 27.9837 17.0898 27.7457C17.0752 27.2972 17.0898 26.8487 17.0898 26.3986C17.0898 25.8934 17.0898 25.8837 17.6063 25.8724C17.7957 25.8724 17.8314 25.7914 17.8281 25.6263C17.8249 25.4611 17.8168 25.351 17.5934 25.3559Z" fill="#8F90A6"/>
<path d="M139.987 17.2649C139.902 16.912 139.589 16.7128 139.113 16.7112C138.883 16.7112 138.652 16.7112 138.422 16.7112C138.278 16.7112 138.219 16.7533 138.219 16.9071C138.219 17.6066 138.219 18.306 138.219 19.012C138.219 19.1221 138.219 19.216 138.381 19.2144C138.543 19.2128 138.596 19.1788 138.587 19.0217C138.577 18.8551 138.577 18.688 138.587 18.5214C138.595 18.421 138.517 18.2672 138.694 18.2397C138.835 18.2186 138.979 18.2073 139.073 18.3757C139.181 18.5764 139.332 18.7562 139.438 18.9586C139.565 19.2014 139.736 19.2727 140.018 19.1674L139.421 18.2429C139.908 18.0049 140.089 17.6875 139.987 17.2649ZM138.946 17.8932C138.548 17.9272 138.553 17.7183 138.582 17.511C138.582 16.98 138.527 17.035 139 17.0253C139.434 17.0253 139.631 17.1564 139.638 17.4495C139.644 17.7426 139.437 17.8527 138.946 17.8932Z" fill="#8F90A6"/>
</svg>
