<svg width="118" height="28" viewBox="0 0 118 28" fill="none" xmlns="http://www.w3.org/2000/svg">
<path d="M11.3471 -2.03522C10.9326 -1.25539 5.34606 9.26951 2.93963 13.7915C2.85623 13.9479 2.86265 14.0609 2.94412 14.2141C5.3018 18.645 10.08 27.6335 10.1294 27.7175C10.1788 27.6341 14.957 18.645 17.3147 14.2147C17.3962 14.0616 17.4032 13.9485 17.3192 13.7922C15.97 11.2653 14.6298 8.73325 13.2807 6.20637C13.1941 6.04484 13.1883 5.92402 13.2781 5.76121C13.6489 5.08798 14.0043 4.40635 14.3803 3.69952C14.4335 3.79062 18.0089 10.5119 19.7622 13.8051C19.836 13.9434 19.8424 14.0467 19.7667 14.1895C16.992 19.4042 14.2218 24.6214 11.4548 29.8405C11.3811 29.9801 11.306 30.0434 11.1379 30.0408C10.4528 30.0292 9.76694 30.0324 9.08177 30.0389C8.95475 30.0402 8.88739 29.9995 8.82772 29.8858C6.04663 24.6408 3.26297 19.397 0.476105 14.1553C0.418366 14.0461 0.413234 13.9647 0.472898 13.8516C3.26041 8.60855 6.04342 3.36484 8.83093 -1.87693C8.86622 -1.94283 8.94897 -2.02747 9.01056 -2.02812C9.77528 -2.0391 10.54 -2.03522 11.3471 -2.03522Z" fill="#8F90A6"/>
<path d="M14.5162 1.17557C13.2408 3.56935 9.7251 10.1828 7.80881 13.7848C7.72734 13.9385 7.72156 14.0516 7.80496 14.2073C9.15413 16.7348 10.4943 19.2662 11.8435 21.7931C11.9301 21.9553 11.9346 22.0755 11.8448 22.2383C11.474 22.9115 11.1185 23.5931 10.7419 24.3006C10.6919 24.2153 7.11723 17.4934 5.36004 14.1937C5.28626 14.0555 5.28049 13.9521 5.35619 13.8093C8.13023 8.59533 10.9004 3.37811 13.6674 -1.84105C13.7418 -1.98125 13.8175 -2.04328 13.9843 -2.04069C14.6695 -2.02906 15.3553 -2.03229 16.0405 -2.03876C16.1681 -2.04005 16.2342 -1.99805 16.2945 -1.88499C19.0762 3.36002 21.8599 8.60373 24.6468 13.8455C24.7051 13.9547 24.709 14.0367 24.6493 14.1492C21.8625 19.3909 19.0795 24.6346 16.2919 29.8764C16.2567 29.9423 16.1739 30.0263 16.1123 30.027C15.3476 30.0373 14.5829 30.0334 13.7816 30.0334C13.8342 29.93 19.4233 19.3955 22.1839 14.2067C22.2673 14.0503 22.2609 13.9372 22.1788 13.7841C19.8211 9.3532 15.0429 0.364719 14.9935 0.281372C14.9845 0.296879 14.8093 0.624449 14.5162 1.17557Z" fill="#8F90A6"/>
<path d="M34.0929 20.8125H31.476V9.36074C31.476 9.21489 31.4601 9.1201 31.4268 9.07342C31.3935 9.02675 31.3124 8.97716 31.1806 8.92466L30.4724 8.64755L30.6882 7.49829H37.2977C39.0022 7.49829 40.2288 7.82498 40.976 8.47837C41.7233 9.13176 42.0969 10.1862 42.0969 11.6388C42.0969 12.7881 41.8638 13.6734 41.3989 14.2932C40.9326 14.9145 40.2085 15.3171 39.2252 15.5023L42.4517 20.8125H39.5612L36.6301 15.7998H34.0929V20.8125ZM34.0929 13.8192H37.0037C37.9088 13.8192 38.5547 13.6544 38.9414 13.3234C39.328 12.9937 39.5221 12.4322 39.5221 11.6388C39.5221 10.86 39.328 10.3044 38.9414 9.97475C38.5547 9.64514 37.9088 9.47887 37.0037 9.47887H34.0929V13.8192Z" fill="#8F90A6"/>
<path d="M54.2368 7.49927V9.52069H47.3116V13.0677H52.8205V15.0089H47.3116V18.7935H54.3932V20.815H44.6962V9.36317C44.6962 9.21733 44.6803 9.12253 44.647 9.07586C44.6137 9.02919 44.5326 8.9796 44.4008 8.9271L43.6926 8.64999L43.9084 7.50073H54.2368V7.49927Z" fill="#8F90A6"/>
<path d="M56.559 9.36074C56.559 9.21489 56.5431 9.1201 56.5098 9.07342C56.4765 9.02675 56.3954 8.97716 56.2636 8.92466L55.5554 8.64755L55.7712 7.49829H58.7226C58.9195 7.49829 59.047 7.52163 59.1064 7.5683C59.1657 7.61497 59.2729 7.74331 59.4307 7.95479L66.2184 17.2072V7.49975H68.6383V20.8125H66.1011L58.9804 11.1051V20.8125H56.5605V9.36074H56.559Z" fill="#8F90A6"/>
<path d="M77.9815 7.49927C78.2436 7.97472 78.526 8.54644 78.8272 9.21295C79.1284 9.87947 79.4398 10.6029 79.7613 11.3817C80.0828 12.1619 80.3999 12.9728 80.7156 13.8188C81.0299 14.6647 81.3282 15.5033 81.6106 16.3346C81.893 17.1659 82.1522 17.9666 82.3883 18.7323C82.6243 19.498 82.8213 20.1922 82.9777 20.812H80.342C80.1972 20.271 80.0466 19.7415 79.8902 19.2267C79.7323 18.7119 79.5817 18.2029 79.4369 17.7012H73.6138C73.4559 18.2029 73.3024 18.7119 73.1518 19.2267C73.0012 19.7415 72.8535 20.271 72.7087 20.812H70.073C70.2308 20.1907 70.4278 19.498 70.6639 18.7323C70.8999 17.9666 71.1591 17.1674 71.4415 16.3346C71.7239 15.5018 72.0222 14.6632 72.3365 13.8188C72.6508 12.9743 72.9694 12.1619 73.2908 11.3817C73.6123 10.6029 73.9237 9.87947 74.2249 9.21295C74.5261 8.54644 74.8085 7.97472 75.0707 7.49927H77.9815V7.49927ZM76.5246 9.83571C75.6847 11.7375 74.9244 13.7123 74.2423 15.76H78.807C78.0988 13.7123 77.3385 11.739 76.5246 9.83571Z" fill="#8F90A6"/>
<path d="M84.2953 9.36074C84.2953 9.2149 84.278 9.1201 84.2461 9.07343C84.2128 9.02675 84.1317 8.97716 83.9999 8.92466L83.2917 8.64755L83.5075 7.49829H86.7341C86.8514 7.49829 86.9107 7.56392 86.9107 7.69664V15.4031C86.9107 16.6705 87.1801 17.582 87.7174 18.1377C88.2547 18.6919 89.1265 18.969 90.3342 18.969C91.5536 18.969 92.4297 18.6919 92.9612 18.1377C93.4927 17.5835 93.7577 16.672 93.7577 15.4031V7.49829H96.3746V15.6015C96.3746 16.5655 96.2602 17.391 96.0299 18.0779C95.8011 18.7649 95.4434 19.3293 94.9583 19.7712C94.4731 20.2131 93.8461 20.5369 93.08 20.7425C92.3124 20.9467 91.3986 21.0488 90.3357 21.0488C89.2727 21.0488 88.3589 20.9467 87.5914 20.7425C86.8239 20.5383 86.1982 20.2146 85.7131 19.7712C85.228 19.3293 84.8703 18.7649 84.6414 18.0779C84.4112 17.391 84.2968 16.5655 84.2968 15.6015V9.36074H84.2953Z" fill="#8F90A6"/>
<path d="M99.4042 9.36074C99.4042 9.21489 99.3883 9.1201 99.355 9.07342C99.3217 9.02675 99.2406 8.97716 99.1088 8.92466L98.4006 8.64755L98.6164 7.49829H101.843C101.96 7.49829 102.02 7.56392 102.02 7.69664V18.7911H108.059V20.8125H99.4028V9.36074H99.4042Z" fill="#8F90A6"/>
<path d="M110.893 9.51971H106.603V7.49829H117.798V9.51971H113.51V20.8125H110.893V9.51971Z" fill="#8F90A6"/>
</svg>
