<svg width="149" height="26" viewBox="0 0 149 26" fill="none" xmlns="http://www.w3.org/2000/svg">
<path fill-rule="evenodd" clip-rule="evenodd" d="M17.7291 23.9519C15.7656 22.7226 14.3196 18.4803 14.3196 13.4388C14.3196 13.2538 14.3196 13.0718 14.3247 12.8887C8.86532 12.0305 4.92101 9.68059 4.81932 6.90056L4.80305 6.93309C3.46794 8.59258 2.70531 10.5124 2.70531 12.5572C2.70531 18.5749 9.31477 23.5066 17.6905 23.9458L17.7261 23.9529L17.7291 23.9519ZM0.18457 12.9996C0.18457 6.26605 8.56434 0.806641 18.9015 0.806641C29.2387 0.806641 37.6195 6.26605 37.6195 12.9996C37.6195 19.7331 29.2387 25.1935 18.9015 25.1935C8.56434 25.1935 0.18457 19.7331 0.18457 12.9996V12.9996ZM18.9015 2.56577C20.8976 2.56577 22.5947 5.59291 23.2241 9.81685V9.81075C27.1064 9.20064 29.8244 7.81164 29.8244 6.18979C29.8244 4.01273 24.9334 2.24954 18.8995 2.24954C12.8656 2.24954 7.97457 4.01273 7.97457 6.18979C7.97457 7.81164 10.6926 9.20573 14.5759 9.81075V9.81685C15.2053 5.59291 16.9024 2.56577 18.8975 2.56577H18.9015ZM20.1095 23.9448C28.4893 23.5096 35.0957 18.5779 35.0957 12.5562C35.0957 10.5113 34.3331 8.59054 32.9969 6.93208L32.9807 6.89954C32.879 9.67958 28.9357 12.0295 23.4763 12.8877C23.4763 13.0707 23.4824 13.2528 23.4824 13.4378C23.4824 18.4793 22.0354 22.7216 20.0739 23.9509L20.1075 23.9438L20.1095 23.9448ZM18.9015 10.1311C19.7963 10.1311 20.6647 10.0924 21.4965 10.0192C21.0826 7.31238 20.0729 5.40072 18.9025 5.40072C17.7322 5.40072 16.7235 7.31238 16.3086 10.0192C17.1404 10.0924 18.0098 10.1311 18.9036 10.1311H18.9015ZM18.9015 20.1581C20.4044 20.1581 21.6297 17.0313 21.6948 13.1094H21.7029C20.7979 13.1928 19.8604 13.2365 18.9015 13.2365C17.9426 13.2365 17.0061 13.1928 16.1001 13.1094H16.1083C16.1733 17.0313 17.3996 20.1581 18.9015 20.1581Z" fill="#8F90A6"/>
<path fill-rule="evenodd" clip-rule="evenodd" d="M95.6934 12.9991C95.6932 11.1556 96.2396 9.35349 97.2637 7.82061C98.2877 6.28773 99.7434 5.09296 101.446 4.3874C103.15 3.68184 105.024 3.49718 106.832 3.85678C108.64 4.21637 110.301 5.10407 111.604 6.40761C112.908 7.71114 113.795 9.37196 114.155 11.18C114.515 12.9881 114.33 14.8622 113.624 16.5653C112.919 18.2684 111.724 19.724 110.191 20.7481C108.658 21.7721 106.856 22.3186 105.013 22.3184C102.541 22.3184 100.171 21.3366 98.4229 19.5889C96.6752 17.8412 95.6934 15.4707 95.6934 12.9991V12.9991ZM105.013 18.8968C107.887 18.8968 110.217 16.253 110.217 12.9991C110.217 9.74522 107.887 7.10144 105.013 7.10144C102.138 7.10144 99.8105 9.74522 99.8105 12.9991C99.8105 16.253 102.139 18.8968 105.013 18.8968Z" fill="#8F90A6"/>
<path fill-rule="evenodd" clip-rule="evenodd" d="M124.907 7.56191V21.8953H120.981V7.56191H120.994H115.502V4.32227H130.385V7.56191H124.92H124.907Z" fill="#8F90A6"/>
<path fill-rule="evenodd" clip-rule="evenodd" d="M135.135 17.9409L133.629 21.8914H129.043L136.294 4.31836H141.18L148.431 21.8914H143.845L142.338 17.9409H135.135ZM138.734 14.9748H141.203L138.75 8.54231H138.716L136.263 14.9738H138.734V14.9748Z" fill="#8F90A6"/>
<path fill-rule="evenodd" clip-rule="evenodd" d="M52.5254 7.56191V21.8953H48.5983V7.56191H48.6126H43.1206V4.32227H58.0031V7.56191H52.5396H52.5254Z" fill="#8F90A6"/>
<path fill-rule="evenodd" clip-rule="evenodd" d="M59.0049 12.9991C59.0047 11.1557 59.5511 9.35357 60.5751 7.82072C61.5992 6.28786 63.0547 5.09309 64.7578 4.3875C66.4608 3.68191 68.3349 3.49719 70.1429 3.8567C71.9509 4.21621 73.6118 5.10381 74.9153 6.40725C76.2189 7.71068 77.1067 9.3714 77.4664 11.1794C77.8261 12.9874 77.6416 14.8615 76.9362 16.5646C76.2308 18.2677 75.0362 19.7234 73.5034 20.7476C71.9707 21.7718 70.1687 22.3184 68.3252 22.3184C67.1013 22.3186 65.8894 22.0776 64.7586 21.6093C63.6278 21.141 62.6003 20.4546 61.7348 19.5892C60.8693 18.7238 60.1828 17.6964 59.7144 16.5657C59.246 15.435 59.0049 14.223 59.0049 12.9991V12.9991ZM68.3252 18.8968C71.1988 18.8968 73.5294 16.253 73.5294 12.9991C73.5294 9.74522 71.1988 7.10144 68.3252 7.10144C65.4516 7.10144 63.121 9.74522 63.121 12.9991C63.121 16.253 65.4516 18.8968 68.3252 18.8968Z" fill="#8F90A6"/>
<path fill-rule="evenodd" clip-rule="evenodd" d="M86.671 21.8953H88.661V15.3051V15.2228L95.5125 4.32227H90.9265L86.671 11.7086L82.4146 4.32227H77.8286L84.6801 15.2228V15.3051V21.8953H86.671Z" fill="#8F90A6"/>
</svg>
